solid Forme 3D00449271 A.1 
  facet normal 0.000000e+00 -9.996988e-01 2.454107e-02
    outer loop
      vertex 0.000000e+00 -3.150000e+01 3.857637e-15
      vertex 4.000000e+00 -3.150000e+01 3.857637e-15
      vertex 0.000000e+00 -3.146206e+01 1.545632e+00
    endloop
  endfacet
  facet normal 0.000000e+00 -9.996988e-01 2.454107e-02
    outer loop
      vertex 0.000000e+00 -3.146206e+01 1.545632e+00
      vertex 4.000000e+00 -3.150000e+01 3.857637e-15
      vertex 4.000000e+00 -3.146206e+01 1.545632e+00
    endloop
  endfacet
  facet normal 0.000000e+00 -9.972904e-01 7.356523e-02
    outer loop
      vertex 0.000000e+00 -3.146206e+01 1.545632e+00
      vertex 4.000000e+00 -3.146206e+01 1.545632e+00
      vertex 0.000000e+00 -3.134832e+01 3.087540e+00
    endloop
  endfacet
  facet normal 0.000000e+00 -9.972904e-01 7.356523e-02
    outer loop
      vertex 0.000000e+00 -3.134832e+01 3.087540e+00
      vertex 4.000000e+00 -3.146206e+01 1.545632e+00
      vertex 4.000000e+00 -3.134832e+01 3.087540e+00
    endloop
  endfacet
  facet normal 0.000000e+00 -9.924795e-01 1.224105e-01
    outer loop
      vertex 0.000000e+00 -3.134832e+01 3.087540e+00
      vertex 4.000000e+00 -3.134832e+01 3.087540e+00
      vertex 0.000000e+00 -3.115906e+01 4.622010e+00
    endloop
  endfacet
  facet normal 0.000000e+00 -9.924795e-01 1.224105e-01
    outer loop
      vertex 0.000000e+00 -3.115906e+01 4.622010e+00
      vertex 4.000000e+00 -3.134832e+01 3.087540e+00
      vertex 4.000000e+00 -3.115906e+01 4.622010e+00
    endloop
  endfacet
  facet normal 0.000000e+00 -9.852778e-01 1.709609e-01
    outer loop
      vertex 0.000000e+00 -3.115906e+01 4.622010e+00
      vertex 4.000000e+00 -3.115906e+01 4.622010e+00
      vertex 0.000000e+00 -3.089474e+01 6.145345e+00
    endloop
  endfacet
  facet normal 0.000000e+00 -9.852778e-01 1.709609e-01
    outer loop
      vertex 0.000000e+00 -3.089474e+01 6.145345e+00
      vertex 4.000000e+00 -3.115906e+01 4.622010e+00
      vertex 4.000000e+00 -3.089474e+01 6.145345e+00
    endloop
  endfacet
  facet normal 0.000000e+00 -9.757020e-01 2.191018e-01
    outer loop
      vertex 0.000000e+00 -3.089474e+01 6.145345e+00
      vertex 4.000000e+00 -3.089474e+01 6.145345e+00
      vertex 0.000000e+00 -3.055598e+01 7.653876e+00
    endloop
  endfacet
  facet normal 0.000000e+00 -9.757020e-01 2.191018e-01
    outer loop
      vertex 0.000000e+00 -3.055598e+01 7.653876e+00
      vertex 4.000000e+00 -3.089474e+01 6.145345e+00
      vertex 4.000000e+00 -3.055598e+01 7.653876e+00
    endloop
  endfacet
  facet normal 0.000000e+00 -9.637762e-01 2.667122e-01
    outer loop
      vertex 0.000000e+00 -3.055598e+01 7.653876e+00
      vertex 4.000000e+00 -3.055598e+01 7.653876e+00
      vertex 0.000000e+00 -3.014362e+01 9.143968e+00
    endloop
  endfacet
  facet normal 0.000000e+00 -9.637762e-01 2.667122e-01
    outer loop
      vertex 0.000000e+00 -3.014362e+01 9.143968e+00
      vertex 4.000000e+00 -3.055598e+01 7.653876e+00
      vertex 4.000000e+00 -3.014362e+01 9.143968e+00
    endloop
  endfacet
  facet normal 0.000000e+00 -9.495280e-01 3.136824e-01
    outer loop
      vertex 0.000000e+00 -3.014362e+01 9.143968e+00
      vertex 4.000000e+00 -3.014362e+01 9.143968e+00
      vertex 0.000000e+00 -2.965864e+01 1.061203e+01
    endloop
  endfacet
  facet normal 0.000000e+00 -9.495280e-01 3.136824e-01
    outer loop
      vertex 0.000000e+00 -2.965864e+01 1.061203e+01
      vertex 4.000000e+00 -3.014362e+01 9.143968e+00
      vertex 4.000000e+00 -2.965864e+01 1.061203e+01
    endloop
  endfacet
  facet normal 0.000000e+00 -9.329929e-01 3.598949e-01
    outer loop
      vertex 0.000000e+00 -2.965864e+01 1.061203e+01
      vertex 4.000000e+00 -2.965864e+01 1.061203e+01
      vertex 0.000000e+00 -2.910221e+01 1.205453e+01
    endloop
  endfacet
  facet normal 0.000000e+00 -9.329929e-01 3.598949e-01
    outer loop
      vertex 0.000000e+00 -2.910221e+01 1.205453e+01
      vertex 4.000000e+00 -2.965864e+01 1.061203e+01
      vertex 4.000000e+00 -2.910221e+01 1.205453e+01
    endloop
  endfacet
  facet normal 0.000000e+00 -9.142095e-01 4.052417e-01
    outer loop
      vertex 0.000000e+00 -2.910221e+01 1.205453e+01
      vertex 4.000000e+00 -2.910221e+01 1.205453e+01
      vertex 0.000000e+00 -2.847566e+01 1.346799e+01
    endloop
  endfacet
  facet normal 0.000000e+00 -9.142095e-01 4.052417e-01
    outer loop
      vertex 0.000000e+00 -2.847566e+01 1.346799e+01
      vertex 4.000000e+00 -2.910221e+01 1.205453e+01
      vertex 4.000000e+00 -2.847566e+01 1.346799e+01
    endloop
  endfacet
  facet normal 0.000000e+00 -8.932244e-01 4.496112e-01
    outer loop
      vertex 0.000000e+00 -2.847566e+01 1.346799e+01
      vertex 4.000000e+00 -2.847566e+01 1.346799e+01
      vertex 0.000000e+00 -2.778052e+01 1.484900e+01
    endloop
  endfacet
  facet normal 0.000000e+00 -8.932244e-01 4.496112e-01
    outer loop
      vertex 0.000000e+00 -2.778052e+01 1.484900e+01
      vertex 4.000000e+00 -2.847566e+01 1.346799e+01
      vertex 4.000000e+00 -2.778052e+01 1.484900e+01
    endloop
  endfacet
  facet normal 0.000000e+00 -8.700873e-01 4.928977e-01
    outer loop
      vertex 0.000000e+00 -2.778052e+01 1.484900e+01
      vertex 4.000000e+00 -2.778052e+01 1.484900e+01
      vertex 0.000000e+00 -2.701845e+01 1.619424e+01
    endloop
  endfacet
  facet normal 0.000000e+00 -8.700873e-01 4.928977e-01
    outer loop
      vertex 0.000000e+00 -2.701845e+01 1.619424e+01
      vertex 4.000000e+00 -2.778052e+01 1.484900e+01
      vertex 4.000000e+00 -2.701845e+01 1.619424e+01
    endloop
  endfacet
  facet normal 0.000000e+00 -8.448535e-01 5.349978e-01
    outer loop
      vertex 0.000000e+00 -2.701845e+01 1.619424e+01
      vertex 4.000000e+00 -2.701845e+01 1.619424e+01
      vertex 0.000000e+00 -2.619129e+01 1.750046e+01
    endloop
  endfacet
  facet normal 0.000000e+00 -8.448535e-01 5.349978e-01
    outer loop
      vertex 0.000000e+00 -2.619129e+01 1.750046e+01
      vertex 4.000000e+00 -2.701845e+01 1.619424e+01
      vertex 4.000000e+00 -2.619129e+01 1.750046e+01
    endloop
  endfacet
  facet normal 0.000000e+00 -8.175846e-01 5.758085e-01
    outer loop
      vertex 0.000000e+00 -2.619129e+01 1.750046e+01
      vertex 4.000000e+00 -2.619129e+01 1.750046e+01
      vertex 0.000000e+00 -2.530104e+01 1.876453e+01
    endloop
  endfacet
  facet normal 0.000000e+00 -8.175846e-01 5.758085e-01
    outer loop
      vertex 0.000000e+00 -2.530104e+01 1.876453e+01
      vertex 4.000000e+00 -2.619129e+01 1.750046e+01
      vertex 4.000000e+00 -2.530104e+01 1.876453e+01
    endloop
  endfacet
  facet normal 0.000000e+00 -7.883465e-01 6.152316e-01
    outer loop
      vertex 0.000000e+00 -2.530104e+01 1.876453e+01
      vertex 4.000000e+00 -2.530104e+01 1.876453e+01
      vertex 0.000000e+00 -2.434983e+01 1.998339e+01
    endloop
  endfacet
  facet normal 0.000000e+00 -7.883465e-01 6.152316e-01
    outer loop
      vertex 0.000000e+00 -2.434983e+01 1.998339e+01
      vertex 4.000000e+00 -2.530104e+01 1.876453e+01
      vertex 4.000000e+00 -2.434983e+01 1.998339e+01
    endloop
  endfacet
  facet normal 0.000000e+00 -7.572085e-01 6.531732e-01
    outer loop
      vertex 0.000000e+00 -2.434983e+01 1.998339e+01
      vertex 4.000000e+00 -2.434983e+01 1.998339e+01
      vertex 0.000000e+00 -2.333996e+01 2.115411e+01
    endloop
  endfacet
  facet normal 0.000000e+00 -7.572085e-01 6.531732e-01
    outer loop
      vertex 0.000000e+00 -2.333996e+01 2.115411e+01
      vertex 4.000000e+00 -2.434983e+01 1.998339e+01
      vertex 4.000000e+00 -2.333996e+01 2.115411e+01
    endloop
  endfacet
  facet normal 0.000000e+00 -7.242470e-01 6.895406e-01
    outer loop
      vertex 0.000000e+00 -2.333996e+01 2.115411e+01
      vertex 4.000000e+00 -2.333996e+01 2.115411e+01
      vertex 0.000000e+00 -2.227386e+01 2.227386e+01
    endloop
  endfacet
  facet normal 0.000000e+00 -7.242470e-01 6.895406e-01
    outer loop
      vertex 0.000000e+00 -2.227386e+01 2.227386e+01
      vertex 4.000000e+00 -2.333996e+01 2.115411e+01
      vertex 4.000000e+00 -2.227386e+01 2.227386e+01
    endloop
  endfacet
  facet normal 0.000000e+00 -6.895406e-01 7.242470e-01
    outer loop
      vertex 0.000000e+00 -2.227386e+01 2.227386e+01
      vertex 4.000000e+00 -2.227386e+01 2.227386e+01
      vertex 0.000000e+00 -2.115411e+01 2.333996e+01
    endloop
  endfacet
  facet normal 0.000000e+00 -6.895406e-01 7.242470e-01
    outer loop
      vertex 0.000000e+00 -2.115411e+01 2.333996e+01
      vertex 4.000000e+00 -2.227386e+01 2.227386e+01
      vertex 4.000000e+00 -2.115411e+01 2.333996e+01
    endloop
  endfacet
  facet normal 0.000000e+00 -6.531732e-01 7.572085e-01
    outer loop
      vertex 0.000000e+00 -2.115411e+01 2.333996e+01
      vertex 4.000000e+00 -2.115411e+01 2.333996e+01
      vertex 0.000000e+00 -1.998339e+01 2.434983e+01
    endloop
  endfacet
  facet normal 0.000000e+00 -6.531732e-01 7.572085e-01
    outer loop
      vertex 0.000000e+00 -1.998339e+01 2.434983e+01
      vertex 4.000000e+00 -2.115411e+01 2.333996e+01
      vertex 4.000000e+00 -1.998339e+01 2.434983e+01
    endloop
  endfacet
  facet normal 0.000000e+00 -6.152316e-01 7.883465e-01
    outer loop
      vertex 0.000000e+00 -1.998339e+01 2.434983e+01
      vertex 4.000000e+00 -1.998339e+01 2.434983e+01
      vertex 0.000000e+00 -1.876453e+01 2.530104e+01
    endloop
  endfacet
  facet normal 0.000000e+00 -6.152316e-01 7.883465e-01
    outer loop
      vertex 0.000000e+00 -1.876453e+01 2.530104e+01
      vertex 4.000000e+00 -1.998339e+01 2.434983e+01
      vertex 4.000000e+00 -1.876453e+01 2.530104e+01
    endloop
  endfacet
  facet normal 0.000000e+00 -5.758085e-01 8.175846e-01
    outer loop
      vertex 0.000000e+00 -1.876453e+01 2.530104e+01
      vertex 4.000000e+00 -1.876453e+01 2.530104e+01
      vertex 0.000000e+00 -1.750046e+01 2.619129e+01
    endloop
  endfacet
  facet normal 0.000000e+00 -5.758085e-01 8.175846e-01
    outer loop
      vertex 0.000000e+00 -1.750046e+01 2.619129e+01
      vertex 4.000000e+00 -1.876453e+01 2.530104e+01
      vertex 4.000000e+00 -1.750046e+01 2.619129e+01
    endloop
  endfacet
  facet normal 0.000000e+00 -5.349978e-01 8.448535e-01
    outer loop
      vertex 0.000000e+00 -1.750046e+01 2.619129e+01
      vertex 4.000000e+00 -1.750046e+01 2.619129e+01
      vertex 0.000000e+00 -1.619424e+01 2.701845e+01
    endloop
  endfacet
  facet normal 0.000000e+00 -5.349978e-01 8.448535e-01
    outer loop
      vertex 0.000000e+00 -1.619424e+01 2.701845e+01
      vertex 4.000000e+00 -1.750046e+01 2.619129e+01
      vertex 4.000000e+00 -1.619424e+01 2.701845e+01
    endloop
  endfacet
  facet normal 0.000000e+00 -4.928977e-01 8.700873e-01
    outer loop
      vertex 0.000000e+00 -1.619424e+01 2.701845e+01
      vertex 4.000000e+00 -1.619424e+01 2.701845e+01
      vertex 0.000000e+00 -1.484900e+01 2.778052e+01
    endloop
  endfacet
  facet normal 0.000000e+00 -4.928977e-01 8.700873e-01
    outer loop
      vertex 0.000000e+00 -1.484900e+01 2.778052e+01
      vertex 4.000000e+00 -1.619424e+01 2.701845e+01
      vertex 4.000000e+00 -1.484900e+01 2.778052e+01
    endloop
  endfacet
  facet normal 0.000000e+00 -4.496112e-01 8.932244e-01
    outer loop
      vertex 0.000000e+00 -1.484900e+01 2.778052e+01
      vertex 4.000000e+00 -1.484900e+01 2.778052e+01
      vertex 0.000000e+00 -1.346799e+01 2.847566e+01
    endloop
  endfacet
  facet normal 0.000000e+00 -4.496112e-01 8.932244e-01
    outer loop
      vertex 0.000000e+00 -1.346799e+01 2.847566e+01
      vertex 4.000000e+00 -1.484900e+01 2.778052e+01
      vertex 4.000000e+00 -1.346799e+01 2.847566e+01
    endloop
  endfacet
  facet normal 0.000000e+00 -4.052417e-01 9.142095e-01
    outer loop
      vertex 0.000000e+00 -1.346799e+01 2.847566e+01
      vertex 4.000000e+00 -1.346799e+01 2.847566e+01
      vertex 0.000000e+00 -1.205453e+01 2.910221e+01
    endloop
  endfacet
  facet normal 0.000000e+00 -4.052417e-01 9.142095e-01
    outer loop
      vertex 0.000000e+00 -1.205453e+01 2.910221e+01
      vertex 4.000000e+00 -1.346799e+01 2.847566e+01
      vertex 4.000000e+00 -1.205453e+01 2.910221e+01
    endloop
  endfacet
  facet normal 0.000000e+00 -3.598949e-01 9.329929e-01
    outer loop
      vertex 0.000000e+00 -1.205453e+01 2.910221e+01
      vertex 4.000000e+00 -1.205453e+01 2.910221e+01
      vertex 0.000000e+00 -1.061203e+01 2.965864e+01
    endloop
  endfacet
  facet normal 0.000000e+00 -3.598949e-01 9.329929e-01
    outer loop
      vertex 0.000000e+00 -1.061203e+01 2.965864e+01
      vertex 4.000000e+00 -1.205453e+01 2.910221e+01
      vertex 4.000000e+00 -1.061203e+01 2.965864e+01
    endloop
  endfacet
  facet normal 0.000000e+00 -3.136824e-01 9.495280e-01
    outer loop
      vertex 0.000000e+00 -1.061203e+01 2.965864e+01
      vertex 4.000000e+00 -1.061203e+01 2.965864e+01
      vertex 0.000000e+00 -9.143968e+00 3.014362e+01
    endloop
  endfacet
  facet normal 0.000000e+00 -3.136824e-01 9.495280e-01
    outer loop
      vertex 0.000000e+00 -9.143968e+00 3.014362e+01
      vertex 4.000000e+00 -1.061203e+01 2.965864e+01
      vertex 4.000000e+00 -9.143968e+00 3.014362e+01
    endloop
  endfacet
  facet normal 0.000000e+00 -2.667122e-01 9.637762e-01
    outer loop
      vertex 0.000000e+00 -9.143968e+00 3.014362e+01
      vertex 4.000000e+00 -9.143968e+00 3.014362e+01
      vertex 0.000000e+00 -7.653876e+00 3.055598e+01
    endloop
  endfacet
  facet normal 0.000000e+00 -2.667122e-01 9.637762e-01
    outer loop
      vertex 0.000000e+00 -7.653876e+00 3.055598e+01
      vertex 4.000000e+00 -9.143968e+00 3.014362e+01
      vertex 4.000000e+00 -7.653876e+00 3.055598e+01
    endloop
  endfacet
  facet normal 0.000000e+00 -2.191018e-01 9.757020e-01
    outer loop
      vertex 0.000000e+00 -7.653876e+00 3.055598e+01
      vertex 4.000000e+00 -7.653876e+00 3.055598e+01
      vertex 0.000000e+00 -6.145345e+00 3.089474e+01
    endloop
  endfacet
  facet normal 0.000000e+00 -2.191018e-01 9.757020e-01
    outer loop
      vertex 0.000000e+00 -6.145345e+00 3.089474e+01
      vertex 4.000000e+00 -7.653876e+00 3.055598e+01
      vertex 4.000000e+00 -6.145345e+00 3.089474e+01
    endloop
  endfacet
  facet normal 0.000000e+00 -1.709609e-01 9.852778e-01
    outer loop
      vertex 0.000000e+00 -6.145345e+00 3.089474e+01
      vertex 4.000000e+00 -6.145345e+00 3.089474e+01
      vertex 0.000000e+00 -4.622010e+00 3.115906e+01
    endloop
  endfacet
  facet normal 0.000000e+00 -1.709609e-01 9.852778e-01
    outer loop
      vertex 0.000000e+00 -4.622010e+00 3.115906e+01
      vertex 4.000000e+00 -6.145345e+00 3.089474e+01
      vertex 4.000000e+00 -4.622010e+00 3.115906e+01
    endloop
  endfacet
  facet normal 0.000000e+00 -1.224105e-01 9.924795e-01
    outer loop
      vertex 0.000000e+00 -4.622010e+00 3.115906e+01
      vertex 4.000000e+00 -4.622010e+00 3.115906e+01
      vertex 0.000000e+00 -3.087540e+00 3.134832e+01
    endloop
  endfacet
  facet normal 0.000000e+00 -1.224105e-01 9.924795e-01
    outer loop
      vertex 0.000000e+00 -3.087540e+00 3.134832e+01
      vertex 4.000000e+00 -4.622010e+00 3.115906e+01
      vertex 4.000000e+00 -3.087540e+00 3.134832e+01
    endloop
  endfacet
  facet normal 0.000000e+00 -7.356523e-02 9.972904e-01
    outer loop
      vertex 0.000000e+00 -3.087540e+00 3.134832e+01
      vertex 4.000000e+00 -3.087540e+00 3.134832e+01
      vertex 0.000000e+00 -1.545632e+00 3.146206e+01
    endloop
  endfacet
  facet normal 0.000000e+00 -7.356523e-02 9.972904e-01
    outer loop
      vertex 0.000000e+00 -1.545632e+00 3.146206e+01
      vertex 4.000000e+00 -3.087540e+00 3.134832e+01
      vertex 4.000000e+00 -1.545632e+00 3.146206e+01
    endloop
  endfacet
  facet normal 0.000000e+00 -2.454107e-02 9.996988e-01
    outer loop
      vertex 0.000000e+00 -1.545632e+00 3.146206e+01
      vertex 4.000000e+00 -1.545632e+00 3.146206e+01
      vertex 0.000000e+00 1.928819e-15 3.150000e+01
    endloop
  endfacet
  facet normal 0.000000e+00 -2.454107e-02 9.996988e-01
    outer loop
      vertex 0.000000e+00 1.928819e-15 3.150000e+01
      vertex 4.000000e+00 -1.545632e+00 3.146206e+01
      vertex 4.000000e+00 1.928819e-15 3.150000e+01
    endloop
  endfacet
  facet normal 0.000000e+00 -2.454107e-02 -9.996988e-01
    outer loop
      vertex 0.000000e+00 -5.786456e-15 -3.150000e+01
      vertex 4.000000e+00 -5.786456e-15 -3.150000e+01
      vertex 0.000000e+00 -1.545632e+00 -3.146206e+01
    endloop
  endfacet
  facet normal 0.000000e+00 -2.454107e-02 -9.996988e-01
    outer loop
      vertex 0.000000e+00 -1.545632e+00 -3.146206e+01
      vertex 4.000000e+00 -5.786456e-15 -3.150000e+01
      vertex 4.000000e+00 -1.545632e+00 -3.146206e+01
    endloop
  endfacet
  facet normal 0.000000e+00 -7.356523e-02 -9.972904e-01
    outer loop
      vertex 0.000000e+00 -1.545632e+00 -3.146206e+01
      vertex 4.000000e+00 -1.545632e+00 -3.146206e+01
      vertex 0.000000e+00 -3.087540e+00 -3.134832e+01
    endloop
  endfacet
  facet normal 0.000000e+00 -7.356523e-02 -9.972904e-01
    outer loop
      vertex 0.000000e+00 -3.087540e+00 -3.134832e+01
      vertex 4.000000e+00 -1.545632e+00 -3.146206e+01
      vertex 4.000000e+00 -3.087540e+00 -3.134832e+01
    endloop
  endfacet
  facet normal 0.000000e+00 -1.224105e-01 -9.924795e-01
    outer loop
      vertex 0.000000e+00 -3.087540e+00 -3.134832e+01
      vertex 4.000000e+00 -3.087540e+00 -3.134832e+01
      vertex 0.000000e+00 -4.622010e+00 -3.115906e+01
    endloop
  endfacet
  facet normal 0.000000e+00 -1.224105e-01 -9.924795e-01
    outer loop
      vertex 0.000000e+00 -4.622010e+00 -3.115906e+01
      vertex 4.000000e+00 -3.087540e+00 -3.134832e+01
      vertex 4.000000e+00 -4.622010e+00 -3.115906e+01
    endloop
  endfacet
  facet normal 0.000000e+00 -1.709609e-01 -9.852778e-01
    outer loop
      vertex 0.000000e+00 -4.622010e+00 -3.115906e+01
      vertex 4.000000e+00 -4.622010e+00 -3.115906e+01
      vertex 0.000000e+00 -6.145345e+00 -3.089474e+01
    endloop
  endfacet
  facet normal 0.000000e+00 -1.709609e-01 -9.852778e-01
    outer loop
      vertex 0.000000e+00 -6.145345e+00 -3.089474e+01
      vertex 4.000000e+00 -4.622010e+00 -3.115906e+01
      vertex 4.000000e+00 -6.145345e+00 -3.089474e+01
    endloop
  endfacet
  facet normal 0.000000e+00 -2.191018e-01 -9.757020e-01
    outer loop
      vertex 0.000000e+00 -6.145345e+00 -3.089474e+01
      vertex 4.000000e+00 -6.145345e+00 -3.089474e+01
      vertex 0.000000e+00 -7.653876e+00 -3.055598e+01
    endloop
  endfacet
  facet normal 0.000000e+00 -2.191018e-01 -9.757020e-01
    outer loop
      vertex 0.000000e+00 -7.653876e+00 -3.055598e+01
      vertex 4.000000e+00 -6.145345e+00 -3.089474e+01
      vertex 4.000000e+00 -7.653876e+00 -3.055598e+01
    endloop
  endfacet
  facet normal 0.000000e+00 -2.667122e-01 -9.637762e-01
    outer loop
      vertex 0.000000e+00 -7.653876e+00 -3.055598e+01
      vertex 4.000000e+00 -7.653876e+00 -3.055598e+01
      vertex 0.000000e+00 -9.143968e+00 -3.014362e+01
    endloop
  endfacet
  facet normal 0.000000e+00 -2.667122e-01 -9.637762e-01
    outer loop
      vertex 0.000000e+00 -9.143968e+00 -3.014362e+01
      vertex 4.000000e+00 -7.653876e+00 -3.055598e+01
      vertex 4.000000e+00 -9.143968e+00 -3.014362e+01
    endloop
  endfacet
  facet normal 0.000000e+00 -3.136824e-01 -9.495280e-01
    outer loop
      vertex 0.000000e+00 -9.143968e+00 -3.014362e+01
      vertex 4.000000e+00 -9.143968e+00 -3.014362e+01
      vertex 0.000000e+00 -1.061203e+01 -2.965864e+01
    endloop
  endfacet
  facet normal 0.000000e+00 -3.136824e-01 -9.495280e-01
    outer loop
      vertex 0.000000e+00 -1.061203e+01 -2.965864e+01
      vertex 4.000000e+00 -9.143968e+00 -3.014362e+01
      vertex 4.000000e+00 -1.061203e+01 -2.965864e+01
    endloop
  endfacet
  facet normal 0.000000e+00 -3.598949e-01 -9.329929e-01
    outer loop
      vertex 0.000000e+00 -1.061203e+01 -2.965864e+01
      vertex 4.000000e+00 -1.061203e+01 -2.965864e+01
      vertex 0.000000e+00 -1.205453e+01 -2.910221e+01
    endloop
  endfacet
  facet normal 0.000000e+00 -3.598949e-01 -9.329929e-01
    outer loop
      vertex 0.000000e+00 -1.205453e+01 -2.910221e+01
      vertex 4.000000e+00 -1.061203e+01 -2.965864e+01
      vertex 4.000000e+00 -1.205453e+01 -2.910221e+01
    endloop
  endfacet
  facet normal 0.000000e+00 -4.052417e-01 -9.142095e-01
    outer loop
      vertex 0.000000e+00 -1.205453e+01 -2.910221e+01
      vertex 4.000000e+00 -1.205453e+01 -2.910221e+01
      vertex 0.000000e+00 -1.346799e+01 -2.847566e+01
    endloop
  endfacet
  facet normal 0.000000e+00 -4.052417e-01 -9.142095e-01
    outer loop
      vertex 0.000000e+00 -1.346799e+01 -2.847566e+01
      vertex 4.000000e+00 -1.205453e+01 -2.910221e+01
      vertex 4.000000e+00 -1.346799e+01 -2.847566e+01
    endloop
  endfacet
  facet normal 0.000000e+00 -4.496112e-01 -8.932244e-01
    outer loop
      vertex 0.000000e+00 -1.346799e+01 -2.847566e+01
      vertex 4.000000e+00 -1.346799e+01 -2.847566e+01
      vertex 0.000000e+00 -1.484900e+01 -2.778052e+01
    endloop
  endfacet
  facet normal 0.000000e+00 -4.496112e-01 -8.932244e-01
    outer loop
      vertex 0.000000e+00 -1.484900e+01 -2.778052e+01
      vertex 4.000000e+00 -1.346799e+01 -2.847566e+01
      vertex 4.000000e+00 -1.484900e+01 -2.778052e+01
    endloop
  endfacet
  facet normal 0.000000e+00 -4.928977e-01 -8.700873e-01
    outer loop
      vertex 0.000000e+00 -1.484900e+01 -2.778052e+01
      vertex 4.000000e+00 -1.484900e+01 -2.778052e+01
      vertex 0.000000e+00 -1.619424e+01 -2.701845e+01
    endloop
  endfacet
  facet normal 0.000000e+00 -4.928977e-01 -8.700873e-01
    outer loop
      vertex 0.000000e+00 -1.619424e+01 -2.701845e+01
      vertex 4.000000e+00 -1.484900e+01 -2.778052e+01
      vertex 4.000000e+00 -1.619424e+01 -2.701845e+01
    endloop
  endfacet
  facet normal 0.000000e+00 -5.349978e-01 -8.448535e-01
    outer loop
      vertex 0.000000e+00 -1.619424e+01 -2.701845e+01
      vertex 4.000000e+00 -1.619424e+01 -2.701845e+01
      vertex 0.000000e+00 -1.750046e+01 -2.619129e+01
    endloop
  endfacet
  facet normal 0.000000e+00 -5.349978e-01 -8.448535e-01
    outer loop
      vertex 0.000000e+00 -1.750046e+01 -2.619129e+01
      vertex 4.000000e+00 -1.619424e+01 -2.701845e+01
      vertex 4.000000e+00 -1.750046e+01 -2.619129e+01
    endloop
  endfacet
  facet normal 0.000000e+00 -5.758085e-01 -8.175846e-01
    outer loop
      vertex 0.000000e+00 -1.750046e+01 -2.619129e+01
      vertex 4.000000e+00 -1.750046e+01 -2.619129e+01
      vertex 0.000000e+00 -1.876453e+01 -2.530104e+01
    endloop
  endfacet
  facet normal 0.000000e+00 -5.758085e-01 -8.175846e-01
    outer loop
      vertex 0.000000e+00 -1.876453e+01 -2.530104e+01
      vertex 4.000000e+00 -1.750046e+01 -2.619129e+01
      vertex 4.000000e+00 -1.876453e+01 -2.530104e+01
    endloop
  endfacet
  facet normal 0.000000e+00 -6.152316e-01 -7.883465e-01
    outer loop
      vertex 0.000000e+00 -1.876453e+01 -2.530104e+01
      vertex 4.000000e+00 -1.876453e+01 -2.530104e+01
      vertex 0.000000e+00 -1.998339e+01 -2.434983e+01
    endloop
  endfacet
  facet normal 0.000000e+00 -6.152316e-01 -7.883465e-01
    outer loop
      vertex 0.000000e+00 -1.998339e+01 -2.434983e+01
      vertex 4.000000e+00 -1.876453e+01 -2.530104e+01
      vertex 4.000000e+00 -1.998339e+01 -2.434983e+01
    endloop
  endfacet
  facet normal 0.000000e+00 -6.531732e-01 -7.572085e-01
    outer loop
      vertex 0.000000e+00 -1.998339e+01 -2.434983e+01
      vertex 4.000000e+00 -1.998339e+01 -2.434983e+01
      vertex 0.000000e+00 -2.115411e+01 -2.333996e+01
    endloop
  endfacet
  facet normal 0.000000e+00 -6.531732e-01 -7.572085e-01
    outer loop
      vertex 0.000000e+00 -2.115411e+01 -2.333996e+01
      vertex 4.000000e+00 -1.998339e+01 -2.434983e+01
      vertex 4.000000e+00 -2.115411e+01 -2.333996e+01
    endloop
  endfacet
  facet normal 0.000000e+00 -6.895406e-01 -7.242470e-01
    outer loop
      vertex 0.000000e+00 -2.115411e+01 -2.333996e+01
      vertex 4.000000e+00 -2.115411e+01 -2.333996e+01
      vertex 0.000000e+00 -2.227386e+01 -2.227386e+01
    endloop
  endfacet
  facet normal 0.000000e+00 -6.895406e-01 -7.242470e-01
    outer loop
      vertex 0.000000e+00 -2.227386e+01 -2.227386e+01
      vertex 4.000000e+00 -2.115411e+01 -2.333996e+01
      vertex 4.000000e+00 -2.227386e+01 -2.227386e+01
    endloop
  endfacet
  facet normal 0.000000e+00 -7.242470e-01 -6.895406e-01
    outer loop
      vertex 0.000000e+00 -2.227386e+01 -2.227386e+01
      vertex 4.000000e+00 -2.227386e+01 -2.227386e+01
      vertex 0.000000e+00 -2.333996e+01 -2.115411e+01
    endloop
  endfacet
  facet normal 0.000000e+00 -7.242470e-01 -6.895406e-01
    outer loop
      vertex 0.000000e+00 -2.333996e+01 -2.115411e+01
      vertex 4.000000e+00 -2.227386e+01 -2.227386e+01
      vertex 4.000000e+00 -2.333996e+01 -2.115411e+01
    endloop
  endfacet
  facet normal 0.000000e+00 -7.572085e-01 -6.531732e-01
    outer loop
      vertex 0.000000e+00 -2.333996e+01 -2.115411e+01
      vertex 4.000000e+00 -2.333996e+01 -2.115411e+01
      vertex 0.000000e+00 -2.434983e+01 -1.998339e+01
    endloop
  endfacet
  facet normal 0.000000e+00 -7.572085e-01 -6.531732e-01
    outer loop
      vertex 0.000000e+00 -2.434983e+01 -1.998339e+01
      vertex 4.000000e+00 -2.333996e+01 -2.115411e+01
      vertex 4.000000e+00 -2.434983e+01 -1.998339e+01
    endloop
  endfacet
  facet normal 0.000000e+00 -7.883465e-01 -6.152316e-01
    outer loop
      vertex 0.000000e+00 -2.434983e+01 -1.998339e+01
      vertex 4.000000e+00 -2.434983e+01 -1.998339e+01
      vertex 0.000000e+00 -2.530104e+01 -1.876453e+01
    endloop
  endfacet
  facet normal 0.000000e+00 -7.883465e-01 -6.152316e-01
    outer loop
      vertex 0.000000e+00 -2.530104e+01 -1.876453e+01
      vertex 4.000000e+00 -2.434983e+01 -1.998339e+01
      vertex 4.000000e+00 -2.530104e+01 -1.876453e+01
    endloop
  endfacet
  facet normal 0.000000e+00 -8.175846e-01 -5.758085e-01
    outer loop
      vertex 0.000000e+00 -2.530104e+01 -1.876453e+01
      vertex 4.000000e+00 -2.530104e+01 -1.876453e+01
      vertex 0.000000e+00 -2.619129e+01 -1.750046e+01
    endloop
  endfacet
  facet normal 0.000000e+00 -8.175846e-01 -5.758085e-01
    outer loop
      vertex 0.000000e+00 -2.619129e+01 -1.750046e+01
      vertex 4.000000e+00 -2.530104e+01 -1.876453e+01
      vertex 4.000000e+00 -2.619129e+01 -1.750046e+01
    endloop
  endfacet
  facet normal 0.000000e+00 -8.448535e-01 -5.349978e-01
    outer loop
      vertex 0.000000e+00 -2.619129e+01 -1.750046e+01
      vertex 4.000000e+00 -2.619129e+01 -1.750046e+01
      vertex 0.000000e+00 -2.701845e+01 -1.619424e+01
    endloop
  endfacet
  facet normal 0.000000e+00 -8.448535e-01 -5.349978e-01
    outer loop
      vertex 0.000000e+00 -2.701845e+01 -1.619424e+01
      vertex 4.000000e+00 -2.619129e+01 -1.750046e+01
      vertex 4.000000e+00 -2.701845e+01 -1.619424e+01
    endloop
  endfacet
  facet normal 0.000000e+00 -8.700873e-01 -4.928977e-01
    outer loop
      vertex 0.000000e+00 -2.701845e+01 -1.619424e+01
      vertex 4.000000e+00 -2.701845e+01 -1.619424e+01
      vertex 0.000000e+00 -2.778052e+01 -1.484900e+01
    endloop
  endfacet
  facet normal 0.000000e+00 -8.700873e-01 -4.928977e-01
    outer loop
      vertex 0.000000e+00 -2.778052e+01 -1.484900e+01
      vertex 4.000000e+00 -2.701845e+01 -1.619424e+01
      vertex 4.000000e+00 -2.778052e+01 -1.484900e+01
    endloop
  endfacet
  facet normal 0.000000e+00 -8.932244e-01 -4.496112e-01
    outer loop
      vertex 0.000000e+00 -2.778052e+01 -1.484900e+01
      vertex 4.000000e+00 -2.778052e+01 -1.484900e+01
      vertex 0.000000e+00 -2.847566e+01 -1.346799e+01
    endloop
  endfacet
  facet normal 0.000000e+00 -8.932244e-01 -4.496112e-01
    outer loop
      vertex 0.000000e+00 -2.847566e+01 -1.346799e+01
      vertex 4.000000e+00 -2.778052e+01 -1.484900e+01
      vertex 4.000000e+00 -2.847566e+01 -1.346799e+01
    endloop
  endfacet
  facet normal 0.000000e+00 -9.142095e-01 -4.052417e-01
    outer loop
      vertex 0.000000e+00 -2.847566e+01 -1.346799e+01
      vertex 4.000000e+00 -2.847566e+01 -1.346799e+01
      vertex 0.000000e+00 -2.910221e+01 -1.205453e+01
    endloop
  endfacet
  facet normal 0.000000e+00 -9.142095e-01 -4.052417e-01
    outer loop
      vertex 0.000000e+00 -2.910221e+01 -1.205453e+01
      vertex 4.000000e+00 -2.847566e+01 -1.346799e+01
      vertex 4.000000e+00 -2.910221e+01 -1.205453e+01
    endloop
  endfacet
  facet normal 0.000000e+00 -9.329929e-01 -3.598949e-01
    outer loop
      vertex 0.000000e+00 -2.910221e+01 -1.205453e+01
      vertex 4.000000e+00 -2.910221e+01 -1.205453e+01
      vertex 0.000000e+00 -2.965864e+01 -1.061203e+01
    endloop
  endfacet
  facet normal 0.000000e+00 -9.329929e-01 -3.598949e-01
    outer loop
      vertex 0.000000e+00 -2.965864e+01 -1.061203e+01
      vertex 4.000000e+00 -2.910221e+01 -1.205453e+01
      vertex 4.000000e+00 -2.965864e+01 -1.061203e+01
    endloop
  endfacet
  facet normal 0.000000e+00 -9.495280e-01 -3.136824e-01
    outer loop
      vertex 0.000000e+00 -2.965864e+01 -1.061203e+01
      vertex 4.000000e+00 -2.965864e+01 -1.061203e+01
      vertex 0.000000e+00 -3.014362e+01 -9.143968e+00
    endloop
  endfacet
  facet normal 0.000000e+00 -9.495280e-01 -3.136824e-01
    outer loop
      vertex 0.000000e+00 -3.014362e+01 -9.143968e+00
      vertex 4.000000e+00 -2.965864e+01 -1.061203e+01
      vertex 4.000000e+00 -3.014362e+01 -9.143968e+00
    endloop
  endfacet
  facet normal 0.000000e+00 -9.637762e-01 -2.667122e-01
    outer loop
      vertex 0.000000e+00 -3.014362e+01 -9.143968e+00
      vertex 4.000000e+00 -3.014362e+01 -9.143968e+00
      vertex 0.000000e+00 -3.055598e+01 -7.653876e+00
    endloop
  endfacet
  facet normal 0.000000e+00 -9.637762e-01 -2.667122e-01
    outer loop
      vertex 0.000000e+00 -3.055598e+01 -7.653876e+00
      vertex 4.000000e+00 -3.014362e+01 -9.143968e+00
      vertex 4.000000e+00 -3.055598e+01 -7.653876e+00
    endloop
  endfacet
  facet normal 0.000000e+00 -9.757020e-01 -2.191018e-01
    outer loop
      vertex 0.000000e+00 -3.055598e+01 -7.653876e+00
      vertex 4.000000e+00 -3.055598e+01 -7.653876e+00
      vertex 0.000000e+00 -3.089474e+01 -6.145345e+00
    endloop
  endfacet
  facet normal 0.000000e+00 -9.757020e-01 -2.191018e-01
    outer loop
      vertex 0.000000e+00 -3.089474e+01 -6.145345e+00
      vertex 4.000000e+00 -3.055598e+01 -7.653876e+00
      vertex 4.000000e+00 -3.089474e+01 -6.145345e+00
    endloop
  endfacet
  facet normal 0.000000e+00 -9.852778e-01 -1.709609e-01
    outer loop
      vertex 0.000000e+00 -3.089474e+01 -6.145345e+00
      vertex 4.000000e+00 -3.089474e+01 -6.145345e+00
      vertex 0.000000e+00 -3.115906e+01 -4.622010e+00
    endloop
  endfacet
  facet normal 0.000000e+00 -9.852778e-01 -1.709609e-01
    outer loop
      vertex 0.000000e+00 -3.115906e+01 -4.622010e+00
      vertex 4.000000e+00 -3.089474e+01 -6.145345e+00
      vertex 4.000000e+00 -3.115906e+01 -4.622010e+00
    endloop
  endfacet
  facet normal 0.000000e+00 -9.924795e-01 -1.224105e-01
    outer loop
      vertex 0.000000e+00 -3.115906e+01 -4.622010e+00
      vertex 4.000000e+00 -3.115906e+01 -4.622010e+00
      vertex 0.000000e+00 -3.134832e+01 -3.087540e+00
    endloop
  endfacet
  facet normal 0.000000e+00 -9.924795e-01 -1.224105e-01
    outer loop
      vertex 0.000000e+00 -3.134832e+01 -3.087540e+00
      vertex 4.000000e+00 -3.115906e+01 -4.622010e+00
      vertex 4.000000e+00 -3.134832e+01 -3.087540e+00
    endloop
  endfacet
  facet normal 0.000000e+00 -9.972904e-01 -7.356523e-02
    outer loop
      vertex 0.000000e+00 -3.134832e+01 -3.087540e+00
      vertex 4.000000e+00 -3.134832e+01 -3.087540e+00
      vertex 0.000000e+00 -3.146206e+01 -1.545632e+00
    endloop
  endfacet
  facet normal 0.000000e+00 -9.972904e-01 -7.356523e-02
    outer loop
      vertex 0.000000e+00 -3.146206e+01 -1.545632e+00
      vertex 4.000000e+00 -3.134832e+01 -3.087540e+00
      vertex 4.000000e+00 -3.146206e+01 -1.545632e+00
    endloop
  endfacet
  facet normal 0.000000e+00 -9.996988e-01 -2.454107e-02
    outer loop
      vertex 0.000000e+00 -3.146206e+01 -1.545632e+00
      vertex 4.000000e+00 -3.146206e+01 -1.545632e+00
      vertex 0.000000e+00 -3.150000e+01 3.857637e-15
    endloop
  endfacet
  facet normal 0.000000e+00 -9.996988e-01 -2.454107e-02
    outer loop
      vertex 0.000000e+00 -3.150000e+01 3.857637e-15
      vertex 4.000000e+00 -3.146206e+01 -1.545632e+00
      vertex 4.000000e+00 -3.150000e+01 3.857637e-15
    endloop
  endfacet
  facet normal -1.000000e+00 -0.000000e+00 -0.000000e+00
    outer loop
      vertex -3.600000e+01 1.500000e+02 3.150000e+01
      vertex -3.600000e+01 1.500000e+02 -3.150000e+01
      vertex -3.600000e+01 4.500000e+01 3.150000e+01
    endloop
  endfacet
  facet normal -1.000000e+00 0.000000e+00 0.000000e+00
    outer loop
      vertex -3.600000e+01 4.500000e+01 -3.150000e+01
      vertex -3.600000e+01 4.500000e+01 3.150000e+01
      vertex -3.600000e+01 1.500000e+02 -3.150000e+01
    endloop
  endfacet
  facet normal -1.000000e+00 0.000000e+00 0.000000e+00
    outer loop
      vertex 0.000000e+00 -3.134832e+01 -3.087540e+00
      vertex 0.000000e+00 -3.150000e+01 3.857637e-15
      vertex 0.000000e+00 -3.134832e+01 3.087540e+00
    endloop
  endfacet
  facet normal -1.000000e+00 0.000000e+00 -0.000000e+00
    outer loop
      vertex 0.000000e+00 -3.146206e+01 1.545632e+00
      vertex 0.000000e+00 -3.134832e+01 3.087540e+00
      vertex 0.000000e+00 -3.150000e+01 3.857637e-15
    endloop
  endfacet
  facet normal -1.000000e+00 0.000000e+00 0.000000e+00
    outer loop
      vertex 0.000000e+00 -3.115906e+01 -4.622010e+00
      vertex 0.000000e+00 -3.134832e+01 -3.087540e+00
      vertex 0.000000e+00 -3.089474e+01 -6.145345e+00
    endloop
  endfacet
  facet normal -1.000000e+00 0.000000e+00 0.000000e+00
    outer loop
      vertex 0.000000e+00 -3.134832e+01 3.087540e+00
      vertex 0.000000e+00 -3.089474e+01 -6.145345e+00
      vertex 0.000000e+00 -3.134832e+01 -3.087540e+00
    endloop
  endfacet
  facet normal -1.000000e+00 0.000000e+00 0.000000e+00
    outer loop
      vertex 0.000000e+00 -3.055598e+01 -7.653876e+00
      vertex 0.000000e+00 -3.089474e+01 -6.145345e+00
      vertex 0.000000e+00 -2.847566e+01 -1.346799e+01
    endloop
  endfacet
  facet normal -1.000000e+00 0.000000e+00 -0.000000e+00
    outer loop
      vertex 0.000000e+00 -3.115906e+01 4.622010e+00
      vertex 0.000000e+00 -3.089474e+01 6.145345e+00
      vertex 0.000000e+00 -3.134832e+01 3.087540e+00
    endloop
  endfacet
  facet normal -1.000000e+00 0.000000e+00 0.000000e+00
    outer loop
      vertex 0.000000e+00 -3.014362e+01 -9.143968e+00
      vertex 0.000000e+00 -3.055598e+01 -7.653876e+00
      vertex 0.000000e+00 -2.965864e+01 -1.061203e+01
    endloop
  endfacet
  facet normal -1.000000e+00 0.000000e+00 0.000000e+00
    outer loop
      vertex 0.000000e+00 -2.965864e+01 -1.061203e+01
      vertex 0.000000e+00 -3.055598e+01 -7.653876e+00
      vertex 0.000000e+00 -2.847566e+01 -1.346799e+01
    endloop
  endfacet
  facet normal -1.000000e+00 0.000000e+00 0.000000e+00
    outer loop
      vertex 0.000000e+00 -2.910221e+01 -1.205453e+01
      vertex 0.000000e+00 -2.965864e+01 -1.061203e+01
      vertex 0.000000e+00 -2.847566e+01 -1.346799e+01
    endloop
  endfacet
  facet normal -1.000000e+00 0.000000e+00 -0.000000e+00
    outer loop
      vertex 0.000000e+00 -3.055598e+01 7.653876e+00
      vertex 0.000000e+00 -3.014362e+01 9.143968e+00
      vertex 0.000000e+00 -3.089474e+01 6.145345e+00
    endloop
  endfacet
  facet normal -1.000000e+00 0.000000e+00 0.000000e+00
    outer loop
      vertex 0.000000e+00 -3.134832e+01 3.087540e+00
      vertex 0.000000e+00 -2.847566e+01 -1.346799e+01
      vertex 0.000000e+00 -3.089474e+01 -6.145345e+00
    endloop
  endfacet
  facet normal -1.000000e+00 0.000000e+00 -0.000000e+00
    outer loop
      vertex 0.000000e+00 -3.014362e+01 9.143968e+00
      vertex 0.000000e+00 -2.965864e+01 1.061203e+01
      vertex 0.000000e+00 -3.089474e+01 6.145345e+00
    endloop
  endfacet
  facet normal -1.000000e+00 0.000000e+00 0.000000e+00
    outer loop
      vertex 0.000000e+00 -3.134832e+01 3.087540e+00
      vertex 0.000000e+00 -3.089474e+01 6.145345e+00
      vertex 0.000000e+00 -2.333996e+01 2.115411e+01
    endloop
  endfacet
  facet normal -1.000000e+00 0.000000e+00 0.000000e+00
    outer loop
      vertex 0.000000e+00 -2.847566e+01 -1.346799e+01
      vertex 0.000000e+00 -3.134832e+01 3.087540e+00
      vertex 0.000000e+00 -2.701845e+01 -1.619424e+01
    endloop
  endfacet
  facet normal -1.000000e+00 0.000000e+00 0.000000e+00
    outer loop
      vertex 0.000000e+00 -1.750046e+01 -2.619129e+01
      vertex 0.000000e+00 -2.701845e+01 -1.619424e+01
      vertex 0.000000e+00 -6.145345e+00 -3.089474e+01
    endloop
  endfacet
  facet normal -1.000000e+00 0.000000e+00 -0.000000e+00
    outer loop
      vertex 0.000000e+00 -2.910221e+01 1.205453e+01
      vertex 0.000000e+00 -2.847566e+01 1.346799e+01
      vertex 0.000000e+00 -2.965864e+01 1.061203e+01
    endloop
  endfacet
  facet normal -1.000000e+00 0.000000e+00 0.000000e+00
    outer loop
      vertex 0.000000e+00 -2.778052e+01 -1.484900e+01
      vertex 0.000000e+00 -2.847566e+01 -1.346799e+01
      vertex 0.000000e+00 -2.701845e+01 -1.619424e+01
    endloop
  endfacet
  facet normal -1.000000e+00 0.000000e+00 -0.000000e+00
    outer loop
      vertex 0.000000e+00 -2.965864e+01 1.061203e+01
      vertex 0.000000e+00 -2.847566e+01 1.346799e+01
      vertex 0.000000e+00 -3.089474e+01 6.145345e+00
    endloop
  endfacet
  facet normal -1.000000e+00 0.000000e+00 -0.000000e+00
    outer loop
      vertex 0.000000e+00 -2.847566e+01 1.346799e+01
      vertex 0.000000e+00 -2.333996e+01 2.115411e+01
      vertex 0.000000e+00 -3.089474e+01 6.145345e+00
    endloop
  endfacet
  facet normal -1.000000e+00 0.000000e+00 -0.000000e+00
    outer loop
      vertex 0.000000e+00 -2.778052e+01 1.484900e+01
      vertex 0.000000e+00 -2.701845e+01 1.619424e+01
      vertex 0.000000e+00 -2.847566e+01 1.346799e+01
    endloop
  endfacet
  facet normal -1.000000e+00 0.000000e+00 0.000000e+00
    outer loop
      vertex 0.000000e+00 -2.619129e+01 -1.750046e+01
      vertex 0.000000e+00 -2.701845e+01 -1.619424e+01
      vertex 0.000000e+00 -2.530104e+01 -1.876453e+01
    endloop
  endfacet
  facet normal -1.000000e+00 0.000000e+00 -0.000000e+00
    outer loop
      vertex 0.000000e+00 -2.701845e+01 1.619424e+01
      vertex 0.000000e+00 -2.619129e+01 1.750046e+01
      vertex 0.000000e+00 -2.847566e+01 1.346799e+01
    endloop
  endfacet
  facet normal -1.000000e+00 0.000000e+00 0.000000e+00
    outer loop
      vertex 0.000000e+00 -2.530104e+01 -1.876453e+01
      vertex 0.000000e+00 -2.701845e+01 -1.619424e+01
      vertex 0.000000e+00 -2.115411e+01 -2.333996e+01
    endloop
  endfacet
  facet normal -1.000000e+00 0.000000e+00 0.000000e+00
    outer loop
      vertex 0.000000e+00 -2.434983e+01 -1.998339e+01
      vertex 0.000000e+00 -2.530104e+01 -1.876453e+01
      vertex 0.000000e+00 -2.115411e+01 -2.333996e+01
    endloop
  endfacet
  facet normal -1.000000e+00 0.000000e+00 -0.000000e+00
    outer loop
      vertex 0.000000e+00 -2.619129e+01 1.750046e+01
      vertex 0.000000e+00 -2.333996e+01 2.115411e+01
      vertex 0.000000e+00 -2.847566e+01 1.346799e+01
    endloop
  endfacet
  facet normal -1.000000e+00 0.000000e+00 0.000000e+00
    outer loop
      vertex 0.000000e+00 -2.619129e+01 1.750046e+01
      vertex 0.000000e+00 -2.530104e+01 1.876453e+01
      vertex 0.000000e+00 -2.333996e+01 2.115411e+01
    endloop
  endfacet
  facet normal -1.000000e+00 0.000000e+00 0.000000e+00
    outer loop
      vertex 0.000000e+00 -2.227386e+01 -2.227386e+01
      vertex 0.000000e+00 -2.333996e+01 -2.115411e+01
      vertex 0.000000e+00 -2.115411e+01 -2.333996e+01
    endloop
  endfacet
  facet normal -1.000000e+00 0.000000e+00 -0.000000e+00
    outer loop
      vertex 0.000000e+00 -2.434983e+01 1.998339e+01
      vertex 0.000000e+00 -2.333996e+01 2.115411e+01
      vertex 0.000000e+00 -2.530104e+01 1.876453e+01
    endloop
  endfacet
  facet normal -1.000000e+00 0.000000e+00 0.000000e+00
    outer loop
      vertex 0.000000e+00 -2.434983e+01 -1.998339e+01
      vertex 0.000000e+00 -2.115411e+01 -2.333996e+01
      vertex 0.000000e+00 -2.333996e+01 -2.115411e+01
    endloop
  endfacet
  facet normal -1.000000e+00 0.000000e+00 0.000000e+00
    outer loop
      vertex 0.000000e+00 -2.115411e+01 -2.333996e+01
      vertex 0.000000e+00 -2.701845e+01 -1.619424e+01
      vertex 0.000000e+00 -1.750046e+01 -2.619129e+01
    endloop
  endfacet
  facet normal -1.000000e+00 0.000000e+00 0.000000e+00
    outer loop
      vertex 0.000000e+00 -3.134832e+01 3.087540e+00
      vertex 0.000000e+00 -6.145345e+00 -3.089474e+01
      vertex 0.000000e+00 -2.701845e+01 -1.619424e+01
    endloop
  endfacet
  facet normal -1.000000e+00 0.000000e+00 -0.000000e+00
    outer loop
      vertex 0.000000e+00 -2.227386e+01 2.227386e+01
      vertex 0.000000e+00 -2.115411e+01 2.333996e+01
      vertex 0.000000e+00 -2.333996e+01 2.115411e+01
    endloop
  endfacet
  facet normal -1.000000e+00 0.000000e+00 0.000000e+00
    outer loop
      vertex 0.000000e+00 -1.998339e+01 -2.434983e+01
      vertex 0.000000e+00 -2.115411e+01 -2.333996e+01
      vertex 0.000000e+00 -1.876453e+01 -2.530104e+01
    endloop
  endfacet
  facet normal -1.000000e+00 0.000000e+00 0.000000e+00
    outer loop
      vertex 0.000000e+00 -1.876453e+01 -2.530104e+01
      vertex 0.000000e+00 -2.115411e+01 -2.333996e+01
      vertex 0.000000e+00 -1.750046e+01 -2.619129e+01
    endloop
  endfacet
  facet normal -1.000000e+00 0.000000e+00 -0.000000e+00
    outer loop
      vertex 0.000000e+00 -2.115411e+01 2.333996e+01
      vertex 0.000000e+00 -1.750046e+01 2.619129e+01
      vertex 0.000000e+00 -2.333996e+01 2.115411e+01
    endloop
  endfacet
  facet normal -1.000000e+00 0.000000e+00 0.000000e+00
    outer loop
      vertex 0.000000e+00 -1.750046e+01 2.619129e+01
      vertex 0.000000e+00 -2.115411e+01 2.333996e+01
      vertex 0.000000e+00 -1.876453e+01 2.530104e+01
    endloop
  endfacet
  facet normal -1.000000e+00 0.000000e+00 -0.000000e+00
    outer loop
      vertex 0.000000e+00 -1.998339e+01 2.434983e+01
      vertex 0.000000e+00 -1.876453e+01 2.530104e+01
      vertex 0.000000e+00 -2.115411e+01 2.333996e+01
    endloop
  endfacet
  facet normal -1.000000e+00 0.000000e+00 0.000000e+00
    outer loop
      vertex 0.000000e+00 -1.346799e+01 -2.847566e+01
      vertex 0.000000e+00 -1.750046e+01 -2.619129e+01
      vertex 0.000000e+00 -6.145345e+00 -3.089474e+01
    endloop
  endfacet
  facet normal -1.000000e+00 0.000000e+00 0.000000e+00
    outer loop
      vertex 0.000000e+00 -1.619424e+01 -2.701845e+01
      vertex 0.000000e+00 -1.750046e+01 -2.619129e+01
      vertex 0.000000e+00 -1.346799e+01 -2.847566e+01
    endloop
  endfacet
  facet normal -1.000000e+00 0.000000e+00 0.000000e+00
    outer loop
      vertex 0.000000e+00 -1.061203e+01 -2.965864e+01
      vertex 0.000000e+00 -1.346799e+01 -2.847566e+01
      vertex 0.000000e+00 -6.145345e+00 -3.089474e+01
    endloop
  endfacet
  facet normal -1.000000e+00 0.000000e+00 0.000000e+00
    outer loop
      vertex 0.000000e+00 -1.484900e+01 -2.778052e+01
      vertex 0.000000e+00 -1.619424e+01 -2.701845e+01
      vertex 0.000000e+00 -1.346799e+01 -2.847566e+01
    endloop
  endfacet
  facet normal -1.000000e+00 0.000000e+00 -0.000000e+00
    outer loop
      vertex 0.000000e+00 -2.333996e+01 2.115411e+01
      vertex 0.000000e+00 -6.145345e+00 -3.089474e+01
      vertex 0.000000e+00 -3.134832e+01 3.087540e+00
    endloop
  endfacet
  facet normal -1.000000e+00 0.000000e+00 0.000000e+00
    outer loop
      vertex 0.000000e+00 -1.750046e+01 2.619129e+01
      vertex 0.000000e+00 -1.619424e+01 2.701845e+01
      vertex 0.000000e+00 -1.061203e+01 2.965864e+01
    endloop
  endfacet
  facet normal -1.000000e+00 0.000000e+00 -0.000000e+00
    outer loop
      vertex 0.000000e+00 -1.484900e+01 2.778052e+01
      vertex 0.000000e+00 -1.346799e+01 2.847566e+01
      vertex 0.000000e+00 -1.619424e+01 2.701845e+01
    endloop
  endfacet
  facet normal -1.000000e+00 0.000000e+00 -0.000000e+00
    outer loop
      vertex 0.000000e+00 -1.346799e+01 2.847566e+01
      vertex 0.000000e+00 -1.205453e+01 2.910221e+01
      vertex 0.000000e+00 -1.619424e+01 2.701845e+01
    endloop
  endfacet
  facet normal -1.000000e+00 0.000000e+00 0.000000e+00
    outer loop
      vertex 0.000000e+00 -1.205453e+01 -2.910221e+01
      vertex 0.000000e+00 -1.346799e+01 -2.847566e+01
      vertex 0.000000e+00 -1.061203e+01 -2.965864e+01
    endloop
  endfacet
  facet normal -1.000000e+00 0.000000e+00 -0.000000e+00
    outer loop
      vertex 0.000000e+00 -1.750046e+01 2.619129e+01
      vertex 0.000000e+00 -6.145345e+00 -3.089474e+01
      vertex 0.000000e+00 -2.333996e+01 2.115411e+01
    endloop
  endfacet
  facet normal -1.000000e+00 0.000000e+00 -0.000000e+00
    outer loop
      vertex 0.000000e+00 -1.205453e+01 2.910221e+01
      vertex 0.000000e+00 -1.061203e+01 2.965864e+01
      vertex 0.000000e+00 -1.619424e+01 2.701845e+01
    endloop
  endfacet
  facet normal -1.000000e+00 0.000000e+00 0.000000e+00
    outer loop
      vertex 0.000000e+00 -9.143968e+00 -3.014362e+01
      vertex 0.000000e+00 -1.061203e+01 -2.965864e+01
      vertex 0.000000e+00 -6.145345e+00 -3.089474e+01
    endloop
  endfacet
  facet normal -1.000000e+00 0.000000e+00 0.000000e+00
    outer loop
      vertex 0.000000e+00 -6.145345e+00 -3.089474e+01
      vertex 0.000000e+00 -1.750046e+01 2.619129e+01
      vertex 0.000000e+00 -3.087540e+00 3.134832e+01
    endloop
  endfacet
  facet normal -1.000000e+00 0.000000e+00 0.000000e+00
    outer loop
      vertex 0.000000e+00 -7.653876e+00 -3.055598e+01
      vertex 0.000000e+00 -9.143968e+00 -3.014362e+01
      vertex 0.000000e+00 -6.145345e+00 -3.089474e+01
    endloop
  endfacet
  facet normal -1.000000e+00 0.000000e+00 -0.000000e+00
    outer loop
      vertex 0.000000e+00 -1.061203e+01 2.965864e+01
      vertex 0.000000e+00 -3.087540e+00 3.134832e+01
      vertex 0.000000e+00 -1.750046e+01 2.619129e+01
    endloop
  endfacet
  facet normal -1.000000e+00 0.000000e+00 0.000000e+00
    outer loop
      vertex 0.000000e+00 -6.145345e+00 3.089474e+01
      vertex 0.000000e+00 -1.061203e+01 2.965864e+01
      vertex 0.000000e+00 -7.653876e+00 3.055598e+01
    endloop
  endfacet
  facet normal -1.000000e+00 0.000000e+00 -0.000000e+00
    outer loop
      vertex 0.000000e+00 -9.143968e+00 3.014362e+01
      vertex 0.000000e+00 -7.653876e+00 3.055598e+01
      vertex 0.000000e+00 -1.061203e+01 2.965864e+01
    endloop
  endfacet
  facet normal -1.000000e+00 0.000000e+00 -0.000000e+00
    outer loop
      vertex 0.000000e+00 -6.145345e+00 3.089474e+01
      vertex 0.000000e+00 -3.087540e+00 3.134832e+01
      vertex 0.000000e+00 -1.061203e+01 2.965864e+01
    endloop
  endfacet
  facet normal -1.000000e+00 0.000000e+00 0.000000e+00
    outer loop
      vertex 0.000000e+00 -4.622010e+00 -3.115906e+01
      vertex 0.000000e+00 -6.145345e+00 -3.089474e+01
      vertex 0.000000e+00 -3.087540e+00 -3.134832e+01
    endloop
  endfacet
  facet normal -1.000000e+00 0.000000e+00 0.000000e+00
    outer loop
      vertex 0.000000e+00 -1.545632e+00 -3.146206e+01
      vertex 0.000000e+00 -3.087540e+00 -3.134832e+01
      vertex 0.000000e+00 -5.786456e-15 -3.150000e+01
    endloop
  endfacet
  facet normal -1.000000e+00 0.000000e+00 -0.000000e+00
    outer loop
      vertex 0.000000e+00 -4.622010e+00 3.115906e+01
      vertex 0.000000e+00 -3.087540e+00 3.134832e+01
      vertex 0.000000e+00 -6.145345e+00 3.089474e+01
    endloop
  endfacet
  facet normal -1.000000e+00 0.000000e+00 0.000000e+00
    outer loop
      vertex 0.000000e+00 -6.145345e+00 -3.089474e+01
      vertex 0.000000e+00 -5.786456e-15 -3.150000e+01
      vertex 0.000000e+00 -3.087540e+00 -3.134832e+01
    endloop
  endfacet
  facet normal -1.000000e+00 0.000000e+00 0.000000e+00
    outer loop
      vertex 0.000000e+00 -5.786456e-15 -3.150000e+01
      vertex 0.000000e+00 -6.145345e+00 -3.089474e+01
      vertex 0.000000e+00 1.928819e-15 3.150000e+01
    endloop
  endfacet
  facet normal -1.000000e+00 0.000000e+00 -0.000000e+00
    outer loop
      vertex 0.000000e+00 -3.087540e+00 3.134832e+01
      vertex 0.000000e+00 1.928819e-15 3.150000e+01
      vertex 0.000000e+00 -6.145345e+00 -3.089474e+01
    endloop
  endfacet
  facet normal -1.000000e+00 0.000000e+00 -0.000000e+00
    outer loop
      vertex 0.000000e+00 -1.545632e+00 3.146206e+01
      vertex 0.000000e+00 1.928819e-15 3.150000e+01
      vertex 0.000000e+00 -3.087540e+00 3.134832e+01
    endloop
  endfacet
  facet normal -1.000000e+00 0.000000e+00 0.000000e+00
    outer loop
      vertex 0.000000e+00 -5.786456e-15 -3.150000e+01
      vertex 0.000000e+00 1.928819e-15 3.150000e+01
      vertex 0.000000e+00 4.500000e+01 -3.150000e+01
    endloop
  endfacet
  facet normal -1.000000e+00 -0.000000e+00 -0.000000e+00
    outer loop
      vertex 0.000000e+00 4.500000e+01 3.150000e+01
      vertex 0.000000e+00 4.500000e+01 -3.150000e+01
      vertex 0.000000e+00 1.928819e-15 3.150000e+01
    endloop
  endfacet
  facet normal -1.000000e+00 0.000000e+00 0.000000e+00
    outer loop
      vertex 0.000000e+00 -3.146206e+01 -1.545632e+00
      vertex 0.000000e+00 -3.150000e+01 3.857637e-15
      vertex 0.000000e+00 -3.134832e+01 -3.087540e+00
    endloop
  endfacet
  facet normal 1.000000e+00 0.000000e+00 0.000000e+00
    outer loop
      vertex 4.000000e+00 -3.134832e+01 3.087540e+00
      vertex 4.000000e+00 -3.150000e+01 3.857637e-15
      vertex 4.000000e+00 -3.134832e+01 -3.087540e+00
    endloop
  endfacet
  facet normal 1.000000e+00 0.000000e+00 0.000000e+00
    outer loop
      vertex 4.000000e+00 -3.150000e+01 3.857637e-15
      vertex 4.000000e+00 -3.134832e+01 3.087540e+00
      vertex 4.000000e+00 -3.146206e+01 1.545632e+00
    endloop
  endfacet
  facet normal 1.000000e+00 0.000000e+00 0.000000e+00
    outer loop
      vertex 4.000000e+00 -3.089474e+01 -6.145345e+00
      vertex 4.000000e+00 -3.134832e+01 -3.087540e+00
      vertex 4.000000e+00 -3.115906e+01 -4.622010e+00
    endloop
  endfacet
  facet normal 1.000000e+00 -0.000000e+00 0.000000e+00
    outer loop
      vertex 4.000000e+00 -3.134832e+01 -3.087540e+00
      vertex 4.000000e+00 -3.089474e+01 -6.145345e+00
      vertex 4.000000e+00 -3.134832e+01 3.087540e+00
    endloop
  endfacet
  facet normal 1.000000e+00 0.000000e+00 0.000000e+00
    outer loop
      vertex 4.000000e+00 -2.847566e+01 -1.346799e+01
      vertex 4.000000e+00 -3.089474e+01 -6.145345e+00
      vertex 4.000000e+00 -3.055598e+01 -7.653876e+00
    endloop
  endfacet
  facet normal 1.000000e+00 0.000000e+00 0.000000e+00
    outer loop
      vertex 4.000000e+00 -3.134832e+01 3.087540e+00
      vertex 4.000000e+00 -3.089474e+01 6.145345e+00
      vertex 4.000000e+00 -3.115906e+01 4.622010e+00
    endloop
  endfacet
  facet normal 1.000000e+00 0.000000e+00 0.000000e+00
    outer loop
      vertex 4.000000e+00 -2.965864e+01 -1.061203e+01
      vertex 4.000000e+00 -3.055598e+01 -7.653876e+00
      vertex 4.000000e+00 -3.014362e+01 -9.143968e+00
    endloop
  endfacet
  facet normal 1.000000e+00 0.000000e+00 0.000000e+00
    outer loop
      vertex 4.000000e+00 -2.847566e+01 -1.346799e+01
      vertex 4.000000e+00 -3.055598e+01 -7.653876e+00
      vertex 4.000000e+00 -2.965864e+01 -1.061203e+01
    endloop
  endfacet
  facet normal 1.000000e+00 0.000000e+00 0.000000e+00
    outer loop
      vertex 4.000000e+00 -2.847566e+01 -1.346799e+01
      vertex 4.000000e+00 -2.965864e+01 -1.061203e+01
      vertex 4.000000e+00 -2.910221e+01 -1.205453e+01
    endloop
  endfacet
  facet normal 1.000000e+00 0.000000e+00 0.000000e+00
    outer loop
      vertex 4.000000e+00 -3.089474e+01 6.145345e+00
      vertex 4.000000e+00 -3.014362e+01 9.143968e+00
      vertex 4.000000e+00 -3.055598e+01 7.653876e+00
    endloop
  endfacet
  facet normal 1.000000e+00 -0.000000e+00 -0.000000e+00
    outer loop
      vertex 4.000000e+00 -3.089474e+01 -6.145345e+00
      vertex 4.000000e+00 -2.847566e+01 -1.346799e+01
      vertex 4.000000e+00 -3.134832e+01 3.087540e+00
    endloop
  endfacet
  facet normal 1.000000e+00 0.000000e+00 0.000000e+00
    outer loop
      vertex 4.000000e+00 -3.089474e+01 6.145345e+00
      vertex 4.000000e+00 -2.965864e+01 1.061203e+01
      vertex 4.000000e+00 -3.014362e+01 9.143968e+00
    endloop
  endfacet
  facet normal 1.000000e+00 0.000000e+00 0.000000e+00
    outer loop
      vertex 4.000000e+00 -2.333996e+01 2.115411e+01
      vertex 4.000000e+00 -3.089474e+01 6.145345e+00
      vertex 4.000000e+00 -3.134832e+01 3.087540e+00
    endloop
  endfacet
  facet normal 1.000000e+00 0.000000e+00 0.000000e+00
    outer loop
      vertex 4.000000e+00 -2.701845e+01 -1.619424e+01
      vertex 4.000000e+00 -3.134832e+01 3.087540e+00
      vertex 4.000000e+00 -2.847566e+01 -1.346799e+01
    endloop
  endfacet
  facet normal 1.000000e+00 0.000000e+00 0.000000e+00
    outer loop
      vertex 4.000000e+00 -6.145345e+00 -3.089474e+01
      vertex 4.000000e+00 -2.701845e+01 -1.619424e+01
      vertex 4.000000e+00 -1.750046e+01 -2.619129e+01
    endloop
  endfacet
  facet normal 1.000000e+00 0.000000e+00 0.000000e+00
    outer loop
      vertex 4.000000e+00 -2.965864e+01 1.061203e+01
      vertex 4.000000e+00 -2.847566e+01 1.346799e+01
      vertex 4.000000e+00 -2.910221e+01 1.205453e+01
    endloop
  endfacet
  facet normal 1.000000e+00 0.000000e+00 0.000000e+00
    outer loop
      vertex 4.000000e+00 -2.701845e+01 -1.619424e+01
      vertex 4.000000e+00 -2.847566e+01 -1.346799e+01
      vertex 4.000000e+00 -2.778052e+01 -1.484900e+01
    endloop
  endfacet
  facet normal 1.000000e+00 0.000000e+00 0.000000e+00
    outer loop
      vertex 4.000000e+00 -3.089474e+01 6.145345e+00
      vertex 4.000000e+00 -2.847566e+01 1.346799e+01
      vertex 4.000000e+00 -2.965864e+01 1.061203e+01
    endloop
  endfacet
  facet normal 1.000000e+00 0.000000e+00 0.000000e+00
    outer loop
      vertex 4.000000e+00 -3.089474e+01 6.145345e+00
      vertex 4.000000e+00 -2.333996e+01 2.115411e+01
      vertex 4.000000e+00 -2.847566e+01 1.346799e+01
    endloop
  endfacet
  facet normal 1.000000e+00 0.000000e+00 0.000000e+00
    outer loop
      vertex 4.000000e+00 -2.847566e+01 1.346799e+01
      vertex 4.000000e+00 -2.701845e+01 1.619424e+01
      vertex 4.000000e+00 -2.778052e+01 1.484900e+01
    endloop
  endfacet
  facet normal 1.000000e+00 0.000000e+00 0.000000e+00
    outer loop
      vertex 4.000000e+00 -2.530104e+01 -1.876453e+01
      vertex 4.000000e+00 -2.701845e+01 -1.619424e+01
      vertex 4.000000e+00 -2.619129e+01 -1.750046e+01
    endloop
  endfacet
  facet normal 1.000000e+00 0.000000e+00 0.000000e+00
    outer loop
      vertex 4.000000e+00 -2.847566e+01 1.346799e+01
      vertex 4.000000e+00 -2.619129e+01 1.750046e+01
      vertex 4.000000e+00 -2.701845e+01 1.619424e+01
    endloop
  endfacet
  facet normal 1.000000e+00 0.000000e+00 0.000000e+00
    outer loop
      vertex 4.000000e+00 -2.115411e+01 -2.333996e+01
      vertex 4.000000e+00 -2.701845e+01 -1.619424e+01
      vertex 4.000000e+00 -2.530104e+01 -1.876453e+01
    endloop
  endfacet
  facet normal 1.000000e+00 0.000000e+00 0.000000e+00
    outer loop
      vertex 4.000000e+00 -2.115411e+01 -2.333996e+01
      vertex 4.000000e+00 -2.530104e+01 -1.876453e+01
      vertex 4.000000e+00 -2.434983e+01 -1.998339e+01
    endloop
  endfacet
  facet normal 1.000000e+00 0.000000e+00 0.000000e+00
    outer loop
      vertex 4.000000e+00 -2.847566e+01 1.346799e+01
      vertex 4.000000e+00 -2.333996e+01 2.115411e+01
      vertex 4.000000e+00 -2.619129e+01 1.750046e+01
    endloop
  endfacet
  facet normal 1.000000e+00 0.000000e+00 0.000000e+00
    outer loop
      vertex 4.000000e+00 -2.333996e+01 2.115411e+01
      vertex 4.000000e+00 -2.530104e+01 1.876453e+01
      vertex 4.000000e+00 -2.619129e+01 1.750046e+01
    endloop
  endfacet
  facet normal 1.000000e+00 0.000000e+00 0.000000e+00
    outer loop
      vertex 4.000000e+00 -2.115411e+01 -2.333996e+01
      vertex 4.000000e+00 -2.333996e+01 -2.115411e+01
      vertex 4.000000e+00 -2.227386e+01 -2.227386e+01
    endloop
  endfacet
  facet normal 1.000000e+00 0.000000e+00 0.000000e+00
    outer loop
      vertex 4.000000e+00 -2.530104e+01 1.876453e+01
      vertex 4.000000e+00 -2.333996e+01 2.115411e+01
      vertex 4.000000e+00 -2.434983e+01 1.998339e+01
    endloop
  endfacet
  facet normal 1.000000e+00 -0.000000e+00 -0.000000e+00
    outer loop
      vertex 4.000000e+00 -2.333996e+01 -2.115411e+01
      vertex 4.000000e+00 -2.115411e+01 -2.333996e+01
      vertex 4.000000e+00 -2.434983e+01 -1.998339e+01
    endloop
  endfacet
  facet normal 1.000000e+00 0.000000e+00 0.000000e+00
    outer loop
      vertex 4.000000e+00 -1.750046e+01 -2.619129e+01
      vertex 4.000000e+00 -2.701845e+01 -1.619424e+01
      vertex 4.000000e+00 -2.115411e+01 -2.333996e+01
    endloop
  endfacet
  facet normal 1.000000e+00 -0.000000e+00 -0.000000e+00
    outer loop
      vertex 4.000000e+00 -2.701845e+01 -1.619424e+01
      vertex 4.000000e+00 -6.145345e+00 -3.089474e+01
      vertex 4.000000e+00 -3.134832e+01 3.087540e+00
    endloop
  endfacet
  facet normal 1.000000e+00 0.000000e+00 0.000000e+00
    outer loop
      vertex 4.000000e+00 -2.333996e+01 2.115411e+01
      vertex 4.000000e+00 -2.115411e+01 2.333996e+01
      vertex 4.000000e+00 -2.227386e+01 2.227386e+01
    endloop
  endfacet
  facet normal 1.000000e+00 0.000000e+00 0.000000e+00
    outer loop
      vertex 4.000000e+00 -1.876453e+01 -2.530104e+01
      vertex 4.000000e+00 -2.115411e+01 -2.333996e+01
      vertex 4.000000e+00 -1.998339e+01 -2.434983e+01
    endloop
  endfacet
  facet normal 1.000000e+00 0.000000e+00 0.000000e+00
    outer loop
      vertex 4.000000e+00 -1.750046e+01 -2.619129e+01
      vertex 4.000000e+00 -2.115411e+01 -2.333996e+01
      vertex 4.000000e+00 -1.876453e+01 -2.530104e+01
    endloop
  endfacet
  facet normal 1.000000e+00 0.000000e+00 0.000000e+00
    outer loop
      vertex 4.000000e+00 -2.333996e+01 2.115411e+01
      vertex 4.000000e+00 -1.750046e+01 2.619129e+01
      vertex 4.000000e+00 -2.115411e+01 2.333996e+01
    endloop
  endfacet
  facet normal 1.000000e+00 -0.000000e+00 0.000000e+00
    outer loop
      vertex 4.000000e+00 -1.876453e+01 2.530104e+01
      vertex 4.000000e+00 -2.115411e+01 2.333996e+01
      vertex 4.000000e+00 -1.750046e+01 2.619129e+01
    endloop
  endfacet
  facet normal 1.000000e+00 0.000000e+00 0.000000e+00
    outer loop
      vertex 4.000000e+00 -2.115411e+01 2.333996e+01
      vertex 4.000000e+00 -1.876453e+01 2.530104e+01
      vertex 4.000000e+00 -1.998339e+01 2.434983e+01
    endloop
  endfacet
  facet normal 1.000000e+00 0.000000e+00 0.000000e+00
    outer loop
      vertex 4.000000e+00 -6.145345e+00 -3.089474e+01
      vertex 4.000000e+00 -1.750046e+01 -2.619129e+01
      vertex 4.000000e+00 -1.346799e+01 -2.847566e+01
    endloop
  endfacet
  facet normal 1.000000e+00 0.000000e+00 0.000000e+00
    outer loop
      vertex 4.000000e+00 -1.346799e+01 -2.847566e+01
      vertex 4.000000e+00 -1.750046e+01 -2.619129e+01
      vertex 4.000000e+00 -1.619424e+01 -2.701845e+01
    endloop
  endfacet
  facet normal 1.000000e+00 0.000000e+00 0.000000e+00
    outer loop
      vertex 4.000000e+00 -6.145345e+00 -3.089474e+01
      vertex 4.000000e+00 -1.346799e+01 -2.847566e+01
      vertex 4.000000e+00 -1.061203e+01 -2.965864e+01
    endloop
  endfacet
  facet normal 1.000000e+00 0.000000e+00 0.000000e+00
    outer loop
      vertex 4.000000e+00 -1.346799e+01 -2.847566e+01
      vertex 4.000000e+00 -1.619424e+01 -2.701845e+01
      vertex 4.000000e+00 -1.484900e+01 -2.778052e+01
    endloop
  endfacet
  facet normal 1.000000e+00 -0.000000e+00 0.000000e+00
    outer loop
      vertex 4.000000e+00 -3.134832e+01 3.087540e+00
      vertex 4.000000e+00 -6.145345e+00 -3.089474e+01
      vertex 4.000000e+00 -2.333996e+01 2.115411e+01
    endloop
  endfacet
  facet normal 1.000000e+00 0.000000e+00 0.000000e+00
    outer loop
      vertex 4.000000e+00 -1.061203e+01 2.965864e+01
      vertex 4.000000e+00 -1.619424e+01 2.701845e+01
      vertex 4.000000e+00 -1.750046e+01 2.619129e+01
    endloop
  endfacet
  facet normal 1.000000e+00 0.000000e+00 0.000000e+00
    outer loop
      vertex 4.000000e+00 -1.619424e+01 2.701845e+01
      vertex 4.000000e+00 -1.346799e+01 2.847566e+01
      vertex 4.000000e+00 -1.484900e+01 2.778052e+01
    endloop
  endfacet
  facet normal 1.000000e+00 0.000000e+00 0.000000e+00
    outer loop
      vertex 4.000000e+00 -1.619424e+01 2.701845e+01
      vertex 4.000000e+00 -1.205453e+01 2.910221e+01
      vertex 4.000000e+00 -1.346799e+01 2.847566e+01
    endloop
  endfacet
  facet normal 1.000000e+00 0.000000e+00 0.000000e+00
    outer loop
      vertex 4.000000e+00 -1.061203e+01 -2.965864e+01
      vertex 4.000000e+00 -1.346799e+01 -2.847566e+01
      vertex 4.000000e+00 -1.205453e+01 -2.910221e+01
    endloop
  endfacet
  facet normal 1.000000e+00 -0.000000e+00 0.000000e+00
    outer loop
      vertex 4.000000e+00 -2.333996e+01 2.115411e+01
      vertex 4.000000e+00 -6.145345e+00 -3.089474e+01
      vertex 4.000000e+00 -1.750046e+01 2.619129e+01
    endloop
  endfacet
  facet normal 1.000000e+00 0.000000e+00 0.000000e+00
    outer loop
      vertex 4.000000e+00 -1.619424e+01 2.701845e+01
      vertex 4.000000e+00 -1.061203e+01 2.965864e+01
      vertex 4.000000e+00 -1.205453e+01 2.910221e+01
    endloop
  endfacet
  facet normal 1.000000e+00 0.000000e+00 0.000000e+00
    outer loop
      vertex 4.000000e+00 -6.145345e+00 -3.089474e+01
      vertex 4.000000e+00 -1.061203e+01 -2.965864e+01
      vertex 4.000000e+00 -9.143968e+00 -3.014362e+01
    endloop
  endfacet
  facet normal 1.000000e+00 0.000000e+00 0.000000e+00
    outer loop
      vertex 4.000000e+00 -3.087540e+00 3.134832e+01
      vertex 4.000000e+00 -1.750046e+01 2.619129e+01
      vertex 4.000000e+00 -6.145345e+00 -3.089474e+01
    endloop
  endfacet
  facet normal 1.000000e+00 0.000000e+00 0.000000e+00
    outer loop
      vertex 4.000000e+00 -6.145345e+00 -3.089474e+01
      vertex 4.000000e+00 -9.143968e+00 -3.014362e+01
      vertex 4.000000e+00 -7.653876e+00 -3.055598e+01
    endloop
  endfacet
  facet normal 1.000000e+00 0.000000e+00 0.000000e+00
    outer loop
      vertex 4.000000e+00 -1.750046e+01 2.619129e+01
      vertex 4.000000e+00 -3.087540e+00 3.134832e+01
      vertex 4.000000e+00 -1.061203e+01 2.965864e+01
    endloop
  endfacet
  facet normal 1.000000e+00 -0.000000e+00 0.000000e+00
    outer loop
      vertex 4.000000e+00 -7.653876e+00 3.055598e+01
      vertex 4.000000e+00 -1.061203e+01 2.965864e+01
      vertex 4.000000e+00 -6.145345e+00 3.089474e+01
    endloop
  endfacet
  facet normal 1.000000e+00 0.000000e+00 0.000000e+00
    outer loop
      vertex 4.000000e+00 -1.061203e+01 2.965864e+01
      vertex 4.000000e+00 -7.653876e+00 3.055598e+01
      vertex 4.000000e+00 -9.143968e+00 3.014362e+01
    endloop
  endfacet
  facet normal 1.000000e+00 0.000000e+00 0.000000e+00
    outer loop
      vertex 4.000000e+00 -1.061203e+01 2.965864e+01
      vertex 4.000000e+00 -3.087540e+00 3.134832e+01
      vertex 4.000000e+00 -6.145345e+00 3.089474e+01
    endloop
  endfacet
  facet normal 1.000000e+00 0.000000e+00 0.000000e+00
    outer loop
      vertex 4.000000e+00 -3.087540e+00 -3.134832e+01
      vertex 4.000000e+00 -6.145345e+00 -3.089474e+01
      vertex 4.000000e+00 -4.622010e+00 -3.115906e+01
    endloop
  endfacet
  facet normal 1.000000e+00 0.000000e+00 0.000000e+00
    outer loop
      vertex 4.000000e+00 -5.786456e-15 -3.150000e+01
      vertex 4.000000e+00 -3.087540e+00 -3.134832e+01
      vertex 4.000000e+00 -1.545632e+00 -3.146206e+01
    endloop
  endfacet
  facet normal 1.000000e+00 0.000000e+00 0.000000e+00
    outer loop
      vertex 4.000000e+00 -6.145345e+00 3.089474e+01
      vertex 4.000000e+00 -3.087540e+00 3.134832e+01
      vertex 4.000000e+00 -4.622010e+00 3.115906e+01
    endloop
  endfacet
  facet normal 1.000000e+00 -0.000000e+00 -0.000000e+00
    outer loop
      vertex 4.000000e+00 -3.087540e+00 -3.134832e+01
      vertex 4.000000e+00 -5.786456e-15 -3.150000e+01
      vertex 4.000000e+00 -6.145345e+00 -3.089474e+01
    endloop
  endfacet
  facet normal 1.000000e+00 0.000000e+00 0.000000e+00
    outer loop
      vertex 4.000000e+00 1.928819e-15 3.150000e+01
      vertex 4.000000e+00 -6.145345e+00 -3.089474e+01
      vertex 4.000000e+00 -5.786456e-15 -3.150000e+01
    endloop
  endfacet
  facet normal 1.000000e+00 0.000000e+00 0.000000e+00
    outer loop
      vertex 4.000000e+00 -6.145345e+00 -3.089474e+01
      vertex 4.000000e+00 1.928819e-15 3.150000e+01
      vertex 4.000000e+00 -3.087540e+00 3.134832e+01
    endloop
  endfacet
  facet normal 1.000000e+00 0.000000e+00 0.000000e+00
    outer loop
      vertex 4.000000e+00 -3.087540e+00 3.134832e+01
      vertex 4.000000e+00 1.928819e-15 3.150000e+01
      vertex 4.000000e+00 -1.545632e+00 3.146206e+01
    endloop
  endfacet
  facet normal 1.000000e+00 0.000000e+00 0.000000e+00
    outer loop
      vertex 4.000000e+00 4.500000e+01 -3.150000e+01
      vertex 4.000000e+00 1.928819e-15 3.150000e+01
      vertex 4.000000e+00 -5.786456e-15 -3.150000e+01
    endloop
  endfacet
  facet normal 1.000000e+00 -0.000000e+00 0.000000e+00
    outer loop
      vertex 4.000000e+00 1.928819e-15 3.150000e+01
      vertex 4.000000e+00 4.500000e+01 -3.150000e+01
      vertex 4.000000e+00 4.500000e+01 3.150000e+01
    endloop
  endfacet
  facet normal 1.000000e+00 0.000000e+00 0.000000e+00
    outer loop
      vertex 4.000000e+00 -3.134832e+01 -3.087540e+00
      vertex 4.000000e+00 -3.150000e+01 3.857637e-15
      vertex 4.000000e+00 -3.146206e+01 -1.545632e+00
    endloop
  endfacet
  facet normal -0.000000e+00 -1.000000e+00 -0.000000e+00
    outer loop
      vertex 0.000000e+00 4.500000e+01 3.150000e+01
      vertex -3.600000e+01 4.500000e+01 3.150000e+01
      vertex 0.000000e+00 4.500000e+01 -3.150000e+01
    endloop
  endfacet
  facet normal 0.000000e+00 -1.000000e+00 0.000000e+00
    outer loop
      vertex -3.600000e+01 4.500000e+01 -3.150000e+01
      vertex 0.000000e+00 4.500000e+01 -3.150000e+01
      vertex -3.600000e+01 4.500000e+01 3.150000e+01
    endloop
  endfacet
  facet normal 0.000000e+00 1.000000e+00 -0.000000e+00
    outer loop
      vertex 4.400000e+01 1.500000e+02 -3.150000e+01
      vertex -3.600000e+01 1.500000e+02 -3.150000e+01
      vertex 4.400000e+01 1.500000e+02 3.150000e+01
    endloop
  endfacet
  facet normal -0.000000e+00 1.000000e+00 0.000000e+00
    outer loop
      vertex -3.600000e+01 1.500000e+02 3.150000e+01
      vertex 4.400000e+01 1.500000e+02 3.150000e+01
      vertex -3.600000e+01 1.500000e+02 -3.150000e+01
    endloop
  endfacet
  facet normal -0.000000e+00 -1.000000e+00 -0.000000e+00
    outer loop
      vertex 6.900000e+01 4.492458e+01 3.150000e+01
      vertex 4.400000e+01 4.492458e+01 3.150000e+01
      vertex 6.900000e+01 4.492458e+01 -3.150000e+01
    endloop
  endfacet
  facet normal 0.000000e+00 -1.000000e+00 0.000000e+00
    outer loop
      vertex 4.400000e+01 4.492458e+01 -3.150000e+01
      vertex 6.900000e+01 4.492458e+01 -3.150000e+01
      vertex 4.400000e+01 4.492458e+01 3.150000e+01
    endloop
  endfacet
  facet normal 1.000000e+00 -0.000000e+00 0.000000e+00
    outer loop
      vertex 6.900000e+01 4.492458e+01 3.150000e+01
      vertex 6.900000e+01 1.499246e+02 -3.150000e+01
      vertex 6.900000e+01 1.499246e+02 3.150000e+01
    endloop
  endfacet
  facet normal 1.000000e+00 0.000000e+00 0.000000e+00
    outer loop
      vertex 6.900000e+01 1.499246e+02 -3.150000e+01
      vertex 6.900000e+01 4.492458e+01 3.150000e+01
      vertex 6.900000e+01 4.492458e+01 -3.150000e+01
    endloop
  endfacet
  facet normal -0.000000e+00 -1.000000e+00 -0.000000e+00
    outer loop
      vertex 4.400000e+01 4.500000e+01 3.150000e+01
      vertex 4.000000e+00 4.500000e+01 3.150000e+01
      vertex 4.400000e+01 4.500000e+01 -3.150000e+01
    endloop
  endfacet
  facet normal 0.000000e+00 -1.000000e+00 0.000000e+00
    outer loop
      vertex 4.000000e+00 4.500000e+01 -3.150000e+01
      vertex 4.400000e+01 4.500000e+01 -3.150000e+01
      vertex 4.000000e+00 4.500000e+01 3.150000e+01
    endloop
  endfacet
  facet normal 1.000000e+00 -0.000000e+00 0.000000e+00
    outer loop
      vertex 4.400000e+01 1.499246e+02 3.150000e+01
      vertex 4.400000e+01 1.500000e+02 -3.150000e+01
      vertex 4.400000e+01 1.500000e+02 3.150000e+01
    endloop
  endfacet
  facet normal 1.000000e+00 0.000000e+00 0.000000e+00
    outer loop
      vertex 4.400000e+01 1.500000e+02 -3.150000e+01
      vertex 4.400000e+01 1.499246e+02 3.150000e+01
      vertex 4.400000e+01 1.499246e+02 -3.150000e+01
    endloop
  endfacet
  facet normal -1.000000e+00 -0.000000e+00 -0.000000e+00
    outer loop
      vertex 4.400000e+01 4.500000e+01 3.150000e+01
      vertex 4.400000e+01 4.500000e+01 -3.150000e+01
      vertex 4.400000e+01 4.492458e+01 3.150000e+01
    endloop
  endfacet
  facet normal -1.000000e+00 0.000000e+00 0.000000e+00
    outer loop
      vertex 4.400000e+01 4.492458e+01 -3.150000e+01
      vertex 4.400000e+01 4.492458e+01 3.150000e+01
      vertex 4.400000e+01 4.500000e+01 -3.150000e+01
    endloop
  endfacet
  facet normal 0.000000e+00 1.000000e+00 -0.000000e+00
    outer loop
      vertex 6.900000e+01 1.499246e+02 -3.150000e+01
      vertex 4.400000e+01 1.499246e+02 -3.150000e+01
      vertex 6.900000e+01 1.499246e+02 3.150000e+01
    endloop
  endfacet
  facet normal -0.000000e+00 1.000000e+00 0.000000e+00
    outer loop
      vertex 4.400000e+01 1.499246e+02 3.150000e+01
      vertex 6.900000e+01 1.499246e+02 3.150000e+01
      vertex 4.400000e+01 1.499246e+02 -3.150000e+01
    endloop
  endfacet
  facet normal 0.000000e+00 0.000000e+00 -1.000000e+00
    outer loop
      vertex 4.400000e+01 4.500000e+01 -3.150000e+01
      vertex 6.900000e+01 4.492458e+01 -3.150000e+01
      vertex 4.400000e+01 4.492458e+01 -3.150000e+01
    endloop
  endfacet
  facet normal 0.000000e+00 0.000000e+00 -1.000000e+00
    outer loop
      vertex 4.000000e+00 4.500000e+01 -3.150000e+01
      vertex 4.400000e+01 1.499246e+02 -3.150000e+01
      vertex 4.400000e+01 4.500000e+01 -3.150000e+01
    endloop
  endfacet
  facet normal 0.000000e+00 0.000000e+00 -1.000000e+00
    outer loop
      vertex 0.000000e+00 -5.786456e-15 -3.150000e+01
      vertex 4.000000e+00 4.500000e+01 -3.150000e+01
      vertex 4.000000e+00 -5.786456e-15 -3.150000e+01
    endloop
  endfacet
  facet normal 0.000000e+00 0.000000e+00 -1.000000e+00
    outer loop
      vertex -3.600000e+01 1.500000e+02 -3.150000e+01
      vertex 4.000000e+00 4.500000e+01 -3.150000e+01
      vertex 0.000000e+00 4.500000e+01 -3.150000e+01
    endloop
  endfacet
  facet normal 0.000000e+00 0.000000e+00 -1.000000e+00
    outer loop
      vertex -3.600000e+01 1.500000e+02 -3.150000e+01
      vertex 0.000000e+00 4.500000e+01 -3.150000e+01
      vertex -3.600000e+01 4.500000e+01 -3.150000e+01
    endloop
  endfacet
  facet normal 0.000000e+00 0.000000e+00 -1.000000e+00
    outer loop
      vertex 4.000000e+00 4.500000e+01 -3.150000e+01
      vertex -3.600000e+01 1.500000e+02 -3.150000e+01
      vertex 4.400000e+01 1.499246e+02 -3.150000e+01
    endloop
  endfacet
  facet normal 0.000000e+00 0.000000e+00 -1.000000e+00
    outer loop
      vertex 4.400000e+01 1.499246e+02 -3.150000e+01
      vertex -3.600000e+01 1.500000e+02 -3.150000e+01
      vertex 4.400000e+01 1.500000e+02 -3.150000e+01
    endloop
  endfacet
  facet normal -0.000000e+00 0.000000e+00 -1.000000e+00
    outer loop
      vertex 6.900000e+01 1.499246e+02 -3.150000e+01
      vertex 4.400000e+01 4.500000e+01 -3.150000e+01
      vertex 4.400000e+01 1.499246e+02 -3.150000e+01
    endloop
  endfacet
  facet normal 0.000000e+00 0.000000e+00 -1.000000e+00
    outer loop
      vertex 4.400000e+01 4.500000e+01 -3.150000e+01
      vertex 6.900000e+01 1.499246e+02 -3.150000e+01
      vertex 6.900000e+01 4.492458e+01 -3.150000e+01
    endloop
  endfacet
  facet normal -0.000000e+00 0.000000e+00 -1.000000e+00
    outer loop
      vertex 4.000000e+00 4.500000e+01 -3.150000e+01
      vertex 0.000000e+00 -5.786456e-15 -3.150000e+01
      vertex 0.000000e+00 4.500000e+01 -3.150000e+01
    endloop
  endfacet
  facet normal 0.000000e+00 0.000000e+00 1.000000e+00
    outer loop
      vertex 4.400000e+01 4.492458e+01 3.150000e+01
      vertex 6.900000e+01 4.492458e+01 3.150000e+01
      vertex 4.400000e+01 4.500000e+01 3.150000e+01
    endloop
  endfacet
  facet normal 0.000000e+00 -0.000000e+00 1.000000e+00
    outer loop
      vertex 4.400000e+01 4.500000e+01 3.150000e+01
      vertex 4.400000e+01 1.499246e+02 3.150000e+01
      vertex 4.000000e+00 4.500000e+01 3.150000e+01
    endloop
  endfacet
  facet normal 0.000000e+00 0.000000e+00 1.000000e+00
    outer loop
      vertex 4.000000e+00 4.500000e+01 3.150000e+01
      vertex 0.000000e+00 4.500000e+01 3.150000e+01
      vertex 4.000000e+00 1.928819e-15 3.150000e+01
    endloop
  endfacet
  facet normal 0.000000e+00 -0.000000e+00 1.000000e+00
    outer loop
      vertex 0.000000e+00 4.500000e+01 3.150000e+01
      vertex 4.000000e+00 4.500000e+01 3.150000e+01
      vertex -3.600000e+01 1.500000e+02 3.150000e+01
    endloop
  endfacet
  facet normal 0.000000e+00 0.000000e+00 1.000000e+00
    outer loop
      vertex -3.600000e+01 4.500000e+01 3.150000e+01
      vertex 0.000000e+00 4.500000e+01 3.150000e+01
      vertex -3.600000e+01 1.500000e+02 3.150000e+01
    endloop
  endfacet
  facet normal 0.000000e+00 0.000000e+00 1.000000e+00
    outer loop
      vertex 4.400000e+01 1.499246e+02 3.150000e+01
      vertex -3.600000e+01 1.500000e+02 3.150000e+01
      vertex 4.000000e+00 4.500000e+01 3.150000e+01
    endloop
  endfacet
  facet normal 0.000000e+00 0.000000e+00 1.000000e+00
    outer loop
      vertex 4.400000e+01 1.500000e+02 3.150000e+01
      vertex -3.600000e+01 1.500000e+02 3.150000e+01
      vertex 4.400000e+01 1.499246e+02 3.150000e+01
    endloop
  endfacet
  facet normal -0.000000e+00 0.000000e+00 1.000000e+00
    outer loop
      vertex 4.400000e+01 1.499246e+02 3.150000e+01
      vertex 4.400000e+01 4.500000e+01 3.150000e+01
      vertex 6.900000e+01 1.499246e+02 3.150000e+01
    endloop
  endfacet
  facet normal 0.000000e+00 -0.000000e+00 1.000000e+00
    outer loop
      vertex 6.900000e+01 4.492458e+01 3.150000e+01
      vertex 6.900000e+01 1.499246e+02 3.150000e+01
      vertex 4.400000e+01 4.500000e+01 3.150000e+01
    endloop
  endfacet
  facet normal 0.000000e+00 0.000000e+00 1.000000e+00
    outer loop
      vertex 0.000000e+00 1.928819e-15 3.150000e+01
      vertex 4.000000e+00 1.928819e-15 3.150000e+01
      vertex 0.000000e+00 4.500000e+01 3.150000e+01
    endloop
  endfacet
endsolid
